<svg xmlns="http://www.w3.org/2000/svg" viewBox="0 0 117.73 117.85">
  <path fill="currentColor" d="M61.28 11.96l-1.79-.14.83-10.41 3.26.26c1.63.13 3.45.76 3.23 3.4l-.01.27C66.58 8 64.69 8.33 63.06 8.2l-1.47-.12-.31 3.88zm1.97-5.32c.69.06 1.62-.13 1.73-1.5l.02-.15c.11-1.38-.78-1.7-1.47-1.76l-1.54-.12-.27 3.4 1.53.13zM69.01 13.01l-1.76-.35L69.3 2.41l1.76.35-2.05 10.25zM73.98 14.4l-1.71-.54 2.69-8.47-2.38-.75.47-1.49 6.46 2.05-.47 1.49-2.38-.75-2.68 8.46zM80.64 15.69l.11.05c1.09.55 1.88.03 2.46-1.15l1.62.81-.06.12c-1.11 2.2-2.68 2.65-4.82 1.57-2.33-1.17-2.73-3.07-1.11-6.3l.24-.48c1.62-3.23 3.38-4.05 5.72-2.87 2.14 1.08 2.73 2.6 1.59 4.88l-.2.41-1.62-.81c.75-1.49.76-2.45-.37-3.02l-.11-.05c-1.33-.67-2.3.19-3.36 2.3l-.24.48c-1.07 2.1-1.19 3.39.15 4.06zM96.04 14.98l-6.25 8.38-1.44-1.07 2.72-3.65-2.85-2.12-2.72 3.65-1.44-1.07 6.25-8.38 1.44 1.07-2.59 3.48 2.85 2.12 2.59-3.48 1.44 1.07zM102.45 21.34l-1.13 1.09-3.01-3.11-1.99 1.93 2.54 2.63-1.12 1.08-2.54-2.63-3.27 3.17-1.25-1.29 7.51-7.27 4.26 4.4zM99.37 26.15l.44-.31c2.97-2.06 4.92-1.9 6.42.25 1.49 2.15.96 4.03-2.01 6.1l-.44.31c-2.97 2.06-4.92 1.9-6.42-.24-1.49-2.16-.96-4.05 2.01-6.11zm-.69 5.25c.83 1.2 2.11.93 4.05-.42l.44-.31c1.94-1.35 2.64-2.45 1.8-3.65l-.07-.1c-.83-1.2-2.11-.93-4.05.42l-.44.31c-1.94 1.35-2.64 2.45-1.8 3.65l.07.1zM100.92 37.85l-.75-1.63 9.49-4.39 1.37 2.97c.69 1.48 1.03 3.38-1.38 4.49l-.24.11c-1.52.7-2.58.37-3.32-.34l-3.08 3.3-.82-1.76 2.91-3-.64-1.39-3.54 1.64zm5.61-.9c.29.63.91 1.35 2.16.77l.13-.06c1.25-.58 1.1-1.51.81-2.15l-.65-1.4-3.1 1.44.65 1.4zM109.44 43.54l5.25 1.67.57 2.09-4.88-1.75-5.2 4.51-.53-1.93 3.86-3.25-1.73-.62-2.97.81-.47-1.73 10.08-2.76.47 1.73-4.45 1.23zM105.65 53.36l1.57-.08.12 2.44 6.66-.33-1.38-1.84 1.25-.93 2.38 3.14.06 1.29-8.9.45.12 2.44-1.57.08-.31-6.66zM105.4 64.19c.25-2.26 1.71-3.18 3.5-2.98l4.48.5c1.8.2 3.01 1.42 2.76 3.68-.25 2.26-1.71 3.18-3.5 2.98l-4.48-.5c-1.8-.2-3.01-1.41-2.76-3.68zm9.18 1.06l.01-.05c.12-1.11-.48-1.61-1.45-1.71l-4.37-.49c-.97-.11-1.67.24-1.8 1.35l-.01.05c-.12 1.11.48 1.6 1.45 1.71l4.37.49c.97.11 1.67-.25 1.8-1.35zM103.95 71.64c.62-2.19 2.2-2.86 3.94-2.37l4.33 1.22c1.74.49 2.74 1.88 2.12 4.08-.62 2.19-2.2 2.86-3.94 2.37l-4.33-1.22c-1.74-.5-2.74-1.89-2.12-4.08zm8.87 2.53l.01-.05c.3-1.07-.21-1.66-1.16-1.93L107.45 71c-.94-.27-1.69-.03-1.99 1.04l-.01.05c-.3 1.07.21 1.66 1.16 1.93l4.23 1.19c.93.26 1.68.03 1.98-1.04zM98.45 84.31l1.01-1.48 8.62 5.9-1.85 2.7c-.92 1.35-2.37 2.61-4.56 1.11l-.22-.15c-2.2-1.51-1.54-3.31-.62-4.66l.83-1.22-3.21-2.2zm3.64 4.36c-.39.57-.7 1.47.44 2.25l.12.08c1.14.78 1.86.17 2.26-.4l.87-1.27-2.82-1.93-.87 1.27zM93.7 90.49l1.18-1.35 7.88 6.87-1.18 1.35-7.88-6.87zM90.02 94.13l1.32-1.22 6.02 6.54 1.83-1.69 1.06 1.15-4.99 4.59-1.06-1.15 1.83-1.69-6.01-6.53zM85.59 99.27l-.1.07c-1.01.68-.95 1.62-.22 2.71l-1.51 1-.07-.11c-1.37-2.05-.97-3.64 1.02-4.97 2.18-1.45 4.02-.86 6.03 2.15l.3.45c2.01 3.01 1.84 4.94-.33 6.39-2 1.33-3.61 1.08-5.02-1.04l-.25-.38 1.51-1c.92 1.38 1.75 1.88 2.81 1.17l.1-.07c1.24-.83.97-2.1-.34-4.06l-.3-.45c-1.32-1.94-2.38-2.69-3.63-1.86zM78.6 113.02l-4.19-9.58 1.65-.72 1.83 4.18 3.25-1.42-1.83-4.18 1.65-.72 4.19 9.58-1.65.72-1.74-3.98-3.25 1.42 1.74 3.98-1.65.72zM69.86 115.43l-.39-1.52 4.19-1.07-.69-2.69-3.54.9-.38-1.51 3.54-.9-1.13-4.42 1.74-.44 2.58 10.13-5.92 1.52zM67.25 110.35l.05.53c.31 3.6-.8 5.22-3.41 5.45-2.6.23-3.98-1.17-4.29-4.78l-.05-.53c-.31-3.6.8-5.22 3.4-5.45 2.62-.22 3.99 1.18 4.3 4.78zm-4.22-3.21c-1.46.13-1.86 1.37-1.65 3.72l.05.53c.2 2.35.82 3.51 2.27 3.38l.12-.01c1.46-.13 1.86-1.37 1.65-3.72l-.05-.53c-.2-2.35-.82-3.51-2.27-3.38l-.12.01zM56.32 105.88l1.79.15-.88 10.42-3.26-.28c-1.63-.14-3.44-.78-3.22-3.42l.02-.27c.14-1.67.96-2.42 1.94-2.71l-1.34-4.31 1.94.16 1.17 4.01 1.52.13.32-3.88zm-2 5.32c-.69-.06-1.62.12-1.74 1.49l-.01.15c-.12 1.38.77 1.71 1.46 1.76l1.54.13.29-3.4-1.54-.13zM47.15 110.47l-4.05 3.74-2.1-.54 3.93-3.38-1.35-6.75 1.93.49.92 4.96 1.4-1.19.76-2.99 1.74.44-2.58 10.13-1.74-.44 1.14-4.47zM40.47 102.31l-.71 1.4-2.17-1.1-3.02 5.95 2.28-.29.19 1.55-3.91.51-1.15-.58 4.03-7.95-2.17-1.1.71-1.4 5.92 3.01zM31.22 96.72c1.84 1.35 1.91 3.06.84 4.52l-2.66 3.63c-1.07 1.46-2.73 1.91-4.56.56-1.84-1.35-1.91-3.06-.84-4.52l2.66-3.63c1.07-1.46 2.72-1.91 4.56-.56zm-5.48 7.43l.04.03c.9.66 1.63.38 2.21-.41l2.6-3.54c.58-.79.62-1.57-.28-2.23l-.04-.03c-.9-.66-1.63-.38-2.21.41l-2.6 3.54c-.57.79-.61 1.57.28 2.23zM25.46 91.73c1.59 1.63 1.39 3.33.1 4.6l-3.21 3.15c-1.29 1.27-3 1.44-4.59-.19-1.59-1.63-1.39-3.33-.1-4.6l3.21-3.15c1.29-1.26 3-1.43 4.59.19zm-6.61 6.45l.04.04c.78.79 1.55.64 2.25-.04l3.14-3.08c.7-.69.87-1.45.09-2.25l-.04-.04c-.78-.79-1.55-.64-2.25.04l-3.14 3.08c-.7.69-.87 1.46-.09 2.25zM17.17 80.68l.79 1.62-9.4 4.57-1.43-2.94c-.71-1.47-1.1-3.36 1.29-4.52l.24-.12c2.4-1.17 3.65.3 4.36 1.77l.64 1.33 3.51-1.71zm-5.59 1.01c-.3-.63-.93-1.33-2.17-.73l-.13.06c-1.24.6-1.07 1.54-.77 2.16l.67 1.39 3.07-1.49-.67-1.39zM14.16 73.49l.59 1.7-9.88 3.43-.59-1.7 9.88-3.43zM12.84 68.52l.4 1.75-8.66 1.97.55 2.43-1.53.35-1.5-6.61 1.53-.35.55 2.43 8.66-1.97zM10.58 62.12l-.01-.12c-.08-1.22-.93-1.63-2.24-1.54l-.12-1.8.13-.01c2.46-.17 3.64.96 3.8 3.36.18 2.61-1.25 3.91-4.86 4.15l-.53.04c-3.61.24-5.2-.86-5.38-3.46-.16-2.39.85-3.67 3.39-3.84l.45-.03.12 1.8c-1.66.11-2.5.58-2.41 1.85l.01.12c.1 1.48 1.34 1.88 3.69 1.73l.53-.04c2.36-.17 3.53-.72 3.43-2.21zM2.12 49.24l10.39 1.11-.19 1.79-4.53-.48-.38 3.53 4.53.48-.19 1.79-10.38-1.12.19-1.78 4.32.46.38-3.53-4.32-.46.18-1.79zM4.35 40.45l1.51.42-1.15 4.17 2.68.74.97-3.53 1.5.41-.97 3.53 4.39 1.21-.48 1.73-10.07-2.77 1.62-5.91zM10.06 40.66l-.49-.22c-3.28-1.52-4.14-3.28-3.03-5.67 1.09-2.37 2.99-2.87 6.27-1.35l.49.22c3.28 1.52 4.14 3.28 3.04 5.65-1.1 2.39-2.99 2.88-6.28 1.37zm4.88-2.07c.61-1.33-.27-2.29-2.41-3.28l-.49-.22c-2.14-.99-3.45-1.03-4.06.29l-.05.11c-.61 1.33.27 2.29 2.41 3.28l.49.22c2.14.99 3.45 1.03 4.06-.29l.05-.11zM19.37 33.4l-1.02 1.48-8.59-5.95 1.86-2.69c.93-1.34 2.39-2.6 4.57-1.09l.22.15c1.38.95 1.62 2.04 1.39 3.03l4.41.98-1.11 1.6-4.06-.99-.87 1.26 3.2 2.22zm-3.62-4.38c.4-.57.71-1.47-.43-2.25l-.12-.08c-1.13-.79-1.86-.18-2.26.39l-.88 1.27 2.81 1.95.88-1.28zM19.95 23.17l-1.22-5.38 1.51-1.56.97 5.09 6.52 2.19-1.39 1.43-4.76-1.67.34 1.81 2.21 2.15-1.25 1.29-7.5-7.28 1.25-1.29 3.32 3.22zM30.34 21.43l-.86-1.31 2.04-1.34-3.68-5.57-.88 2.12-1.44-.6L27 11.08l1.07-.71 4.91 7.44 2.04-1.34.86 1.31-5.54 3.65zM39.76 16.16c-2.08.93-3.61.15-4.35-1.51l-1.84-4.11c-.74-1.65-.31-3.31 1.77-4.25s3.61-.15 4.35 1.51l1.84 4.11c.75 1.66.31 3.32-1.77 4.25zm-3.75-8.44l-.05.02c-1.02.45-1.14 1.23-.74 2.12l1.8 4.01c.4.89 1.06 1.32 2.08.86l.05-.02c1.02-.45 1.14-1.23.74-2.12l-1.8-4.01c-.4-.89-1.06-1.32-2.08-.86zM46.96 13.63c-2.2.58-3.58-.44-4.04-2.19l-1.14-4.35c-.46-1.75.24-3.32 2.44-3.9 2.2-.58 3.58.44 4.04 2.19l1.14 4.35c.45 1.75-.24 3.32-2.44 3.9zm-2.32-8.94l-.05.01c-1.08.28-1.32 1.03-1.08 1.97l1.12 4.25c.25.95.83 1.47 1.91 1.19l.05-.01c1.08-.28 1.32-1.03 1.07-1.97l-1.12-4.25c-.25-.94-.83-1.47-1.9-1.19z"/>
  <g>
    <circle cx="58.87" cy="58.92" r="3" fill="currentColor"/>
  </g>
</svg>